<svg width="75" height="73" xmlns="http://www.w3.org/2000/svg"><g fill="none" fill-rule="evenodd"><path fill="#FFF" d="M17.57 42.08v7.309h-1.644v-5.137l-2.199 3.675-2.21-3.675v5.137H9.884V42.08H12l1.727 2.974 1.685-2.974zm1.388 7.309h1.634V42.08h-1.634zm4.316-5.785h-1.973v-1.523h5.59v1.523H24.92v5.785h-1.645zm4.224 5.692v-1.523c.339.062 1.162.205 2.168.205.843 0 1.264-.113 1.264-.576 0-.535-.36-.607-1.541-1.153-1.151-.525-2.004-.988-2.004-2.223 0-1.523.925-2.048 2.754-2.048.935 0 1.613.082 2.034.134v1.523c-.41-.041-1.16-.144-1.993-.144-.986 0-1.182.103-1.182.504 0 .412.535.618 1.336.978 1.203.546 2.189.998 2.189 2.388 0 1.451-.904 2.13-2.857 2.13-.77 0-1.49-.082-2.168-.195m6.002-2.377V42.08h1.634v4.775c0 .834.493 1.122 1.274 1.122s1.284-.288 1.284-1.122V42.08h1.634v4.838c0 1.77-1.16 2.572-2.918 2.572-1.758 0-2.908-.802-2.908-2.572m10.287 1.092c.657 0 .924-.237.924-.875 0-.567-.246-.803-.853-.803h-1.5v1.677h1.429zm-.113-2.975c.657 0 .894-.35.894-.834 0-.587-.288-.74-.894-.74h-1.316v1.574h1.316zm-2.95-2.954h3.186c1.49 0 2.312.545 2.312 1.883 0 1.06-.606 1.39-1.161 1.606.657.195 1.346.556 1.346 1.78 0 1.277-.77 2.039-2.384 2.039h-3.299V42.08zm6.67 7.308h1.634V42.08h-1.634zm2.826-.093v-1.523c.34.062 1.162.205 2.169.205.842 0 1.263-.113 1.263-.576 0-.535-.36-.607-1.54-1.153-1.152-.525-2.005-.988-2.005-2.223 0-1.523.925-2.048 2.754-2.048.935 0 1.614.082 2.035.134v1.523c-.411-.041-1.161-.144-1.994-.144-.987 0-1.182.103-1.182.504 0 .412.535.618 1.336.978 1.203.546 2.19.998 2.19 2.388 0 1.451-.905 2.13-2.857 2.13a13.09 13.09 0 01-2.169-.195m11.756-7.216v7.309h-1.633v-2.903h-2.59v2.903h-1.634V42.08h1.634v2.882h2.59V42.08zm1.337 7.309h1.634V42.08h-1.634zm-38.081 2.527v7.308h-1.645v-5.136l-2.199 3.674-2.21-3.674v5.136h-1.633v-7.308h2.116l1.727 2.974 1.685-2.974zm5.714 3.654c0-1.493-.257-2.244-1.45-2.244-1.192 0-1.448.75-1.448 2.244 0 1.502.256 2.264 1.449 2.264 1.192 0 1.449-.762 1.449-2.264m-4.594 0c0-2.615.997-3.757 3.145-3.757s3.144 1.142 3.144 3.757c0 2.614-.996 3.756-3.144 3.756s-3.145-1.142-3.145-3.756m8.53-2.131H32.91v-1.523h5.59v1.523h-1.973v5.785h-1.644zm8.478 2.131c0-1.493-.257-2.244-1.449-2.244-1.192 0-1.449.75-1.449 2.244 0 1.502.257 2.264 1.45 2.264 1.191 0 1.448-.762 1.448-2.264m-4.593 0c0-2.615.996-3.757 3.144-3.757s3.145 1.142 3.145 3.757c0 2.614-.997 3.756-3.145 3.756s-3.144-1.142-3.144-3.756m10.276-.381c.74 0 .966-.37.966-.927 0-.566-.226-.936-.966-.936h-1.222v1.863h1.222zm-2.856-3.273h2.96c1.561 0 2.558.586 2.558 2.346 0 1.132-.565 1.864-1.5 2.09l1.798 2.872h-1.911l-1.542-2.615h-.73v2.615h-1.633v-7.308zm6.495 7.214v-1.522c.339.061 1.16.205 2.168.205.842 0 1.264-.113 1.264-.576 0-.535-.36-.607-1.541-1.153-1.151-.525-2.005-.988-2.005-2.223 0-1.523.925-2.048 2.755-2.048.935 0 1.613.082 2.034.133v1.524c-.41-.041-1.16-.144-1.993-.144-.987 0-1.182.103-1.182.504 0 .412.534.618 1.336.978 1.202.545 2.188.998 2.188 2.388 0 1.45-.904 2.13-2.856 2.13-.77 0-1.49-.082-2.168-.195"/><path fill="#ED0000" d="M30.348 12.315l6.989 12.125 6.989-12.125L37.337.191zM51.315 24.44H37.337l6.989 12.125h13.978zm-27.956 0h13.978l-6.99 12.125H16.37z"/><path d="M0 70.377h2.26c1.551 0 2.522-.893 2.522-2.83 0-2-.963-2.829-2.49-2.829H0v5.659zm1.003-.94v-3.779h1.305c.955 0 1.432.567 1.432 1.866 0 1.307-.493 1.912-1.464 1.912H1.003zm4.655.94h.994v-2.925c.334-.096.74-.191 1.52-.191v-.869c-.788 0-1.25.207-1.592.35v-.27h-.922v3.905zm3.755-4.471l.7-.71-.7-.717-.692.717.692.71zm-.493 4.471h.994v-3.905H8.92v3.905zm3.302 0h.955c.453-.702 1.424-1.69 1.496-3.905h-.995c-.08 1.617-.636 2.494-.979 2.988-.342-.494-.899-1.37-.978-2.988h-.995c.072 2.216 1.043 3.203 1.496 3.905zm5.164.08c.748 0 1.161-.073 1.4-.136V69.5a5.662 5.662 0 01-1.337.151c-.716 0-1.185-.215-1.225-.908h2.785c.008-.096.008-.271.008-.406 0-1.252-.406-1.945-1.806-1.945-1.353 0-1.981.677-1.981 2.016 0 1.37.771 2.048 2.156 2.048zm-1.162-2.36c.04-.605.263-.94.955-.94.812 0 .867.383.875.94h-1.83zm6.278 4.272l1.655-2.295c.191-.263 1.305-1.658 1.305-3.602h-.995c0 1.538-.763 2.67-1.002 3.012-.278-.398-1.058-1.498-1.058-3.012h-.995c.064 2.056.995 3.084 1.472 3.785l-1.098 1.554.716.558zm5.546-1.913c1.345 0 2.06-.709 2.06-2.032 0-1.347-.715-2.032-2.06-2.032-1.337 0-2.061.685-2.061 2.032 0 1.323.724 2.032 2.061 2.032zm0-.868c-.772 0-1.034-.407-1.034-1.172 0-.789.262-1.172 1.034-1.172s1.042.383 1.042 1.172c0 .765-.27 1.172-1.042 1.172zm6.652-3.116h-.995v2.924c-.333.096-.74.192-1.137.192-.335 0-.66-.144-.66-.646v-2.47h-.995v2.518c0 1.036.604 1.466 1.273 1.466.787 0 1.249-.207 1.591-.35v.271h.923v-3.905zm1.082 3.905h.995v-2.925c.334-.096.74-.191 1.52-.191v-.869c-.788 0-1.25.207-1.592.35v-.27h-.923v3.905zm7.83-5.523l-.08-.136h-1.456l-.063.128c-.581 1.171-1.568 2.55-1.568 4.853v.67h1.019v-.566c0-.319.015-.606.047-.877h2.666c.032.271.048.566.048.885v.566h1.018v-.622c0-2.303-.986-3.786-1.631-4.901zm-1.957 3.196c.27-1.124.772-1.825 1.161-2.63.398.82.915 1.53 1.202 2.63h-2.363zm4.55 2.327h.996V67.46c.23-.112.771-.192 1.097-.192.367 0 .62.176.62.67v2.439h.996v-2.582c0-.12-.008-.231-.032-.335.215-.12.772-.2 1.106-.192.358.009.629.176.629.67v2.439h.987v-2.574c0-1.012-.59-1.41-1.33-1.41-.533 0-1.313.158-1.686.405-.223-.279-.605-.406-1.003-.406-.556 0-1.25.223-1.455.35v-.27h-.924v3.905zm9.803-3.985c-.604 0-1.05.183-1.312.279v-2.112H53.7v2.12l.008 3.698h.987v-.263c.247.111.604.342 1.312.342 1.084 0 1.728-.82 1.728-2.032 0-1.211-.644-2.032-1.728-2.032zm-.222 3.188c-.486 0-.811-.112-1.082-.176v-1.976c.279-.072.596-.175 1.082-.175.692 0 .955.454.955 1.171 0 .718-.279 1.156-.955 1.156zm3.342-3.674l.7-.71-.7-.717-.692.717.692.71zm-.493 4.471h.994v-3.905h-.994v3.905zm3.979.08c.31 0 .644-.032.827-.064v-.9c-.16.023-.406.039-.63.039-.508 0-.747-.08-.747-.558v-1.682h1.258v-.82h-1.258v-1.076h-.987v1.076h-.716v.82h.716v1.913c0 .925.533 1.251 1.537 1.251zm2.14-4.551l.7-.71-.7-.717-.693.717.693.71zm-.494 4.471h.995v-3.905h-.995v3.905zm3.947.08c1.345 0 2.06-.71 2.06-2.033 0-1.347-.715-2.032-2.06-2.032-1.337 0-2.061.685-2.061 2.032 0 1.323.724 2.032 2.06 2.032zm0-.87c-.772 0-1.034-.406-1.034-1.17 0-.79.262-1.173 1.034-1.173s1.042.383 1.042 1.172c0 .765-.27 1.172-1.042 1.172zm2.904.79h.995v-2.925c.334-.096.74-.191 1.138-.191.334 0 .66.143.66.645v2.471h.995v-2.519c0-1.036-.605-1.466-1.273-1.466-.788 0-1.25.207-1.592.35v-.27h-.923v3.905z" fill="#FFF"/></g></svg>